<svg xmlns="http://www.w3.org/2000/svg" width="16" height="15" viewBox="0 0 16 15" fill="none">
  <path fill-rule="evenodd" clip-rule="evenodd" d="M1.73144 1.29273C0.246637 2.77753 1.13355 6.07179 2.61835 7.55659L2.84875 7.78698L7.55183 12.4901L7.96758 12.9058C9.45238 14.3906 12.7466 15.2775 14.2314 13.7927L15.1183 12.9058C15.6082 12.416 15.6082 11.6218 15.1183 11.132L12.9011 8.91468C12.4112 8.42485 11.617 8.42485 11.1272 8.91468L10.6838 9.35814C10.6838 9.35814 9.71369 10.3282 7.45483 8.06934C5.19596 5.81047 6.16602 4.8404 6.16602 4.8404L6.60948 4.39694C7.09931 3.90711 7.09931 3.11294 6.60948 2.62311L4.39219 0.405815C3.90236 -0.0840156 3.10819 -0.0840157 2.61835 0.405815L1.73144 1.29273Z" fill="#333333"/>
</svg>